<svg id="Layer_1" data-name="Layer 1" xmlns="http://www.w3.org/2000/svg" viewBox="0 0 486.01 263.51"><defs><style>.cls-1{fill:#fff;}.cls-2{fill:#f09;}.cls-3{fill:none;}</style></defs><title>logo-outlined</title><path class="cls-1" d="M471.32,147.19c-9.46-8.86-22.45-13.74-36.58-13.74s-27,4.87-36.56,13.71a47.76,47.76,0,0,0-4.85,5.23,37,37,0,0,0-4.15-6.1c-7.17-8.52-17.58-12.84-31-12.84a41.65,41.65,0,0,0-5.79.4v-23a11,11,0,0,0-11-11H310.18a11,11,0,0,0-11,11v25.38a89.42,89.42,0,0,0-22.91-2.8,51,51,0,0,0-26.91,7.35,11,11,0,0,0-8.9-4.55H237V118.64a11,11,0,0,0-11-11H200.55V98q0-.2,0-.4v-.09c0-.07,0-.15,0-.22A22.19,22.19,0,0,0,205,84a22.78,22.78,0,0,0-10.67-19.3,11,11,0,0,0,1.88-3.84c2.08-7.88-.24-13.17-2.55-16.22a17,17,0,0,0-8.17-5.77,13,13,0,0,0-9-6.59l9.82-6.65A11,11,0,0,0,188.94,10l-.26-.34-.26-.34-3.37-4.52,0-.05-.3-.4A11,11,0,0,0,169.81,1.9L144.9,18.78A11,11,0,0,0,142.27,20H142l0,0h-.1l0,0h0l0,0h0l-.1.08q-.39.29-.76.61a11,11,0,0,0-2.18,1.79q-.41.31-.79.67l-.38.37a11.06,11.06,0,0,0-.84,1,11,11,0,0,0-1,1l-.16.2a11.15,11.15,0,0,0-.7,1,11,11,0,0,0-.78,1l-.09.13a11,11,0,0,0-.73,1.24,11,11,0,0,0-1.39,2.51,11.06,11.06,0,0,0-.54,1l0,.05a11,11,0,0,0-.57,1.54,11,11,0,0,0-.88,2.7,11,11,0,0,0-.33,1.08q-.09.36-.16.73t-.13.94a11,11,0,0,0-.36,2.8,11.05,11.05,0,0,0-.13,1.22v.14a11,11,0,0,0,0,1.42,11.05,11.05,0,0,0,0,1.23v.14a11,11,0,0,0,.8,3.59l.42,3.7a23,23,0,0,0-8,9.59A22.88,22.88,0,0,0,109.66,84a22.33,22.33,0,0,0,4.78,13.77s0,.08,0,.11v37.49c0,.13,0,.27,0,.41a53.73,53.73,0,0,0-16.07-2.34c-9.9,0-18.82,2.29-26.28,6.68-7.45-4.39-16.38-6.68-26.28-6.68C18.42,133.45,0,151.74,0,179V215a11,11,0,0,0,11,11H42.25a11,11,0,0,0,7.15-2.64A11,11,0,0,0,56.55,226H87.8a11,11,0,0,0,7.07-2.58A11,11,0,0,0,102,226h83.89c6.35,0,11.57-2.81,14.09-7.45,7.06,4.94,16.36,7.45,27.79,7.45h12.75a10.93,10.93,0,0,0,5.83-1.68A78.22,78.22,0,0,0,273,228.83c11.43,0,21-2.45,28.33-7.27a11,11,0,0,0,8.84,4.48h31.25a11,11,0,0,0,7.85-3.3,11,11,0,0,0,7.85,3.3h26.18v26.47a11,11,0,0,0,11,11h31.25a11,11,0,0,0,11-11V228.69c1.16.09,2.37.15,3.61.15,13.59,0,25.7-5.33,34.11-15A49.63,49.63,0,0,0,486,181.14,46.06,46.06,0,0,0,471.32,147.19Z"/><path class="cls-2" d="M42,180.5V214.7H10.75V178.63c0-20.21,12.59-34.52,34.82-34.52,9.8,0,19.28,2.8,26.27,9.33,7-6.53,16.48-9.33,26.28-9.33,22.39,0,35,14.3,35,34.52V214.7H101.7V180.5c0-3.89-1.86-8.24-7-8.24s-7.15,4.35-7.15,8.24V214.7H56.31V180.5c0-3.89-2.18-8.24-7.15-8.24C44,172.26,42,176.61,42,180.5Z"/><path class="cls-2" d="M194.51,118.31h31.25v28.61h14.46V172.1H225.76v5.13c0,7,1.09,12.13,10.42,12.13h4V214.7H227.47c-26.9,0-33-15.39-33-36.69Z"/><path class="cls-2" d="M246.33,190.92S258.46,197,268.25,197c2.8,0,6.22-.47,6.22-3.89S269.65,190,260.94,188c-11.81-2.64-16.64-10.88-16.64-19.44,0-17.1,17.1-24.41,31.72-24.41,16.48,0,25.81,4.35,25.81,4.35v20.37s-11-4.51-21.3-4.51c-2.8,0-5.91.62-5.91,3.11,0,2.64,3.42,3.26,8.24,4.2l3.89.62c12.75,2.18,18.5,9,18.5,19.75,0,17.57-13.68,25.5-32.49,25.5-16.33,0-26.43-5.29-26.43-5.29Z"/><path class="cls-2" d="M309.94,110.53h31.25V149.4s6.22-5.28,16.79-5.28c19.9,0,30.16,11.66,30.16,36.38V214.7H356.89V180.5c0-3.89-2.49-8.24-7.93-8.24-5.13,0-7.77,3.89-7.77,8.24V214.7H309.94Z"/><path class="cls-2" d="M394.07,180.81c0-20.21,16.79-36.69,40.42-36.69,23.79,0,40.27,16.48,40.27,36.69,0,19-12.44,36.69-34.83,36.69a30.82,30.82,0,0,1-14.61-3.42v38.09H394.07Zm31.25,0a9.1,9.1,0,0,0,18.19,0,9.1,9.1,0,1,0-18.19,0Z"/><path class="cls-2" d="M139.73,44.64l.2.4c-.14.3-.28.59-.41.91h0q.25.43.51.83l1.14,10.13c.45,0,.91-.06,1.37-.06h.32a15.81,15.81,0,0,1,4.6-5.68l-.56-5V46.1h0c.15-.2.3-.39.46-.57h0l-.51-.53h0c.17-.19.34-.36.51-.53h0c-.16-.19-.31-.38-.46-.58h0l.55-.48h0c-.13-.2-.28-.4-.4-.62h0c.2-.15.39-.29.6-.43h0c-.12-.21-.24-.43-.35-.65h0c.21-.13.42-.25.64-.37h0c-.1-.22-.2-.45-.28-.68h0c.22-.11.44-.21.67-.3h0c-.06-.19-.13-.39-.19-.59l0-.12h0c.24-.09.46-.17.69-.24h0c0-.23-.11-.47-.15-.71h0c.24-.06.47-.12.71-.17h0c0-.24-.06-.48-.08-.73h0c.24,0,.49-.08.72-.1h0c0-.24,0-.48,0-.73h0l.73,0a0,0,0,0,0,0,0c0-.24,0-.49.06-.73h0c.25,0,.5,0,.74,0a0,0,0,0,0,0,0c0-.24.08-.48.13-.72h0l.73.1h0l.07-.28c0-.14.08-.29.12-.43h0L179.86,16.2l-.52-.69L176,11l-.25-.33L149.66,28.34l-.46.31-.28.19-1,.11h0q-.24.43-.45.87l-1,.2h0c-.13.3-.26.6-.37.9h0l-.95.29h0c-.1.31-.2.63-.28.93-.3.12-.62.24-.92.38h0c-.07.32-.14.64-.2,1-.3.15-.59.3-.88.47h0c0,.13,0,.25,0,.37l-.06.6c-.29.17-.55.36-.83.55h0c0,.33,0,.66,0,1-.27.2-.52.41-.78.63h0c0,.33,0,.66.08,1-.25.22-.48.45-.71.7h0c0,.32.11.64.17,1h0c-.22.24-.43.49-.64.75h0c.08.32.17.63.26.94h0c-.2.26-.38.53-.57.81h0c.11.31.23.61.35.91-.17.28-.34.56-.49.86h0Z"/><path class="cls-2" d="M179.59,48.57a9.2,9.2,0,0,0-2.71-1.1c-.52-3.1-2-5-3-4.63-1.95.82,1.13,3.56,1.13,3.56,2.31,3.77.39,8.58-.63,10.63a2.34,2.34,0,0,1-.92-.64c-.38-.5-2.7-1.31-4.85-.15s-3,4.8-2.17,7a7.63,7.63,0,0,0,10.36,4c2.1-1,3.87-4.35,3-6.65s-3.09-3.24-3.71-3.12a2.21,2.21,0,0,1-1-.11A15.79,15.79,0,0,0,177,48a6.62,6.62,0,0,1,2.17,1c-1.45,6.2,6.2,8.69,6.2,8.69C187.72,48.69,179.59,48.57,179.59,48.57Z"/><path class="cls-2" d="M182.47,71.87l-.77,0-.11-.77a11.58,11.58,0,0,0-.52-2.16,9,9,0,0,1-2.47,1.87,10.92,10.92,0,0,1-5,1.28,11.74,11.74,0,0,1-4.27-.87,10.5,10.5,0,0,1-4.85-16.61,11.77,11.77,0,0,0-18.74,5.85l-.24.8-.83-.15a11.7,11.7,0,0,0-13.87,10.15l-.09.68-.67.13a11.87,11.87,0,0,0-9.65,11.65A11.46,11.46,0,0,0,123,90.9h68.1a11.39,11.39,0,0,0,2.63-7.22A11.84,11.84,0,0,0,182.47,71.87Z"/><path class="cls-3" d="M157.18,210c4.76,0,8.62.67,8.62-1.25s-3.86-3.48-8.62-3.48-8.62,1.56-8.62,3.48S152.42,210,157.18,210Z"/><path class="cls-2" d="M125.19,97.71v37.34c0,8.46,23.59,54.41,23.59,62s-19.54,11.18-23.59,13.49c-2.07,1.17-1.17,4.19,2.86,4.19H185.6c4.22,0,5.85-2.39,3.7-4.19-3.08-2.59-23.6-5.92-23.6-13.49s23.6-53.52,23.6-62V97.71c0-1.11-.07-2.45-.78-2.45H126C125.1,95.27,125.19,96.8,125.19,97.71Zm32,107.59c4.76,0,8.62,1.56,8.62,3.48s-3.86,1.25-8.62,1.25-8.62.67-8.62-1.25S152.42,205.31,157.18,205.31Z"/><path class="cls-1" d="M167.06,150.93a1.55,1.55,0,0,0-2.12.56,8.95,8.95,0,0,1-15.51,0,1.55,1.55,0,1,0-2.68,1.55,12,12,0,0,0,20.88,0A1.55,1.55,0,0,0,167.06,150.93Z"/><path class="cls-1" d="M140,134.19a6.34,6.34,0,0,0,12.67,0,6.34,6.34,0,1,0-12.67,0Z"/><path class="cls-1" d="M161.69,134.19a6.34,6.34,0,0,0,12.67,0,6.34,6.34,0,1,0-12.67,0Z"/></svg>