<svg id="Layer_1" data-name="Layer 1" xmlns="http://www.w3.org/2000/svg" viewBox="0 0 464.01 241.5"><title>logo-BW</title><path d="M31.25,169.83V204H0V168c0-20.21,12.59-34.52,34.82-34.52,9.8,0,19.28,2.8,26.27,9.33,7-6.53,16.48-9.33,26.28-9.33,22.39,0,35,14.3,35,34.52V204H90.95V169.83c0-3.89-1.86-8.24-7-8.24s-7.15,4.35-7.15,8.24V204H45.55V169.83c0-3.89-2.18-8.24-7.15-8.24C33.27,161.59,31.25,165.94,31.25,169.83Z"/><path d="M183.76,107.64H215v28.61h14.46v25.19H215v5.13c0,7,1.09,12.13,10.42,12.13h4V204H216.72c-26.9,0-33-15.39-33-36.69Z"/><path d="M235.58,180.25s12.13,6.06,21.92,6.06c2.8,0,6.22-.47,6.22-3.89s-4.82-3.11-13.53-5.13c-11.81-2.64-16.64-10.88-16.64-19.44,0-17.1,17.1-24.41,31.72-24.41,16.48,0,25.81,4.35,25.81,4.35v20.37s-11-4.51-21.3-4.51c-2.8,0-5.91.62-5.91,3.11,0,2.64,3.42,3.26,8.24,4.2l3.89.62c12.75,2.18,18.5,9,18.5,19.75,0,17.57-13.68,25.5-32.49,25.5-16.33,0-26.43-5.29-26.43-5.29Z"/><path d="M299.18,99.87h31.25v38.87s6.22-5.28,16.79-5.28c19.9,0,30.16,11.66,30.16,36.38V204H346.13V169.83c0-3.89-2.49-8.24-7.93-8.24-5.13,0-7.77,3.89-7.77,8.24V204H299.18Z"/><path d="M383.32,170.14c0-20.21,16.79-36.69,40.42-36.69,23.79,0,40.27,16.48,40.27,36.69,0,19-12.44,36.69-34.83,36.69a30.82,30.82,0,0,1-14.61-3.42V241.5H383.32Zm31.25,0a9.1,9.1,0,0,0,18.19,0,9.1,9.1,0,1,0-18.19,0Z"/><path d="M129,34l.2.4c-.14.3-.28.59-.41.91h0q.25.43.51.83l1.14,10.13c.45,0,.91-.06,1.37-.06h.32a15.81,15.81,0,0,1,4.6-5.68l-.56-5v-.08h0c.15-.2.3-.39.46-.57h0l-.51-.53h0c.17-.19.34-.36.51-.53h0c-.16-.19-.31-.38-.46-.58h0l.55-.48h0c-.13-.2-.28-.4-.4-.62h0c.2-.15.39-.29.6-.43h0c-.12-.21-.24-.43-.35-.65h0c.21-.13.42-.25.64-.37h0c-.1-.22-.2-.45-.28-.68h0c.22-.11.44-.21.67-.3h0c-.06-.19-.13-.39-.19-.59l0-.12h0c.24-.09.46-.17.69-.24h0c0-.23-.11-.47-.15-.71h0c.24-.06.47-.12.71-.17h0c0-.24-.06-.48-.08-.73h0c.24,0,.49-.08.72-.1h0c0-.24,0-.48,0-.73h0l.73,0a0,0,0,0,0,0,0c0-.24,0-.49.06-.73h0c.25,0,.5,0,.74,0a0,0,0,0,0,0,0c0-.24.08-.48.13-.72h0l.73.1h0l.07-.28c0-.14.08-.29.12-.43h0L169.1,5.53l-.52-.69L165.23.33,165,0,138.91,17.68l-.46.31-.28.19-1,.11h0q-.24.43-.45.87l-1,.2h0c-.13.3-.26.6-.37.9h0l-.95.29h0c-.1.31-.2.63-.28.93-.3.12-.62.24-.92.38h0c-.07.32-.14.64-.2,1-.3.15-.59.3-.88.47h0c0,.13,0,.25,0,.37l-.06.6c-.29.17-.55.36-.83.55h0c0,.33,0,.66,0,1-.27.2-.52.41-.78.63h0c0,.33,0,.66.08,1-.25.22-.48.45-.71.7h0c0,.32.11.64.17,1h0c-.22.24-.43.49-.64.75h0c.08.32.17.63.26.94h0c-.2.26-.38.53-.57.81h0c.11.31.23.61.35.91-.17.28-.34.56-.49.86h0Z"/><path d="M168.84,37.9a9.2,9.2,0,0,0-2.71-1.1c-.52-3.1-2-5-3-4.63-1.95.82,1.13,3.56,1.13,3.56,2.31,3.77.39,8.58-.63,10.63a2.34,2.34,0,0,1-.92-.64c-.38-.5-2.7-1.31-4.85-.15s-3,4.8-2.17,7a7.63,7.63,0,0,0,10.36,4c2.1-1,3.87-4.35,3-6.65s-3.09-3.24-3.71-3.12a2.21,2.21,0,0,1-1-.11,15.79,15.79,0,0,0,1.82-9.3,6.62,6.62,0,0,1,2.17,1c-1.45,6.2,6.2,8.69,6.2,8.69C177,38,168.84,37.9,168.84,37.9Z"/><path d="M171.72,61.2l-.77,0-.11-.77a11.58,11.58,0,0,0-.52-2.16,9,9,0,0,1-2.47,1.87,10.92,10.92,0,0,1-5,1.28,11.74,11.74,0,0,1-4.27-.87,10.5,10.5,0,0,1-4.85-16.61A11.77,11.77,0,0,0,135,49.76l-.24.8-.83-.15a11.7,11.7,0,0,0-13.87,10.15l-.09.68-.67.13A11.87,11.87,0,0,0,109.66,73a11.46,11.46,0,0,0,2.6,7.22h68.1A11.39,11.39,0,0,0,183,73,11.84,11.84,0,0,0,171.72,61.2Z"/><path d="M178.54,199.85c-3.08-2.59-23.6-5.92-23.6-13.49s23.6-53.52,23.6-62V87c0-1.11-.07-2.45-.78-2.45H115.24c-.9,0-.8,1.53-.8,2.45v37.34c0,8.46,23.59,54.41,23.59,62s-19.54,11.18-23.59,13.49c-2.07,1.17-1.17,4.19,2.86,4.19h57.54C179.06,204,180.69,201.65,178.54,199.85Zm-21.22-82.71a6.34,6.34,0,0,1,0,12.67,6.24,6.24,0,0,1-6.39-6.28A6.33,6.33,0,0,1,157.32,117.13Zm-28.07,6.39a6.34,6.34,0,1,1,6.39,6.28A6.24,6.24,0,0,1,129.25,123.52ZM136,142.38a1.55,1.55,0,0,1,2.68-1.55,8.95,8.95,0,0,0,15.51,0,1.55,1.55,0,0,1,2.68,1.55,12,12,0,0,1-20.88,0Zm10.43,57c-4.76,0-8.62.67-8.62-1.25s3.86-3.48,8.62-3.48,8.62,1.56,8.62,3.48S151.19,199.37,146.43,199.37Z"/></svg>