<svg id="Layer_1" data-name="Layer 1" xmlns="http://www.w3.org/2000/svg" viewBox="0 0 7.25 8"><defs><style>.cls-1{fill:#ff9d00;}</style></defs><title>save-icon-8px</title><path class="cls-1" d="M2,2.92a.19.19,0,0,0-.16.16V4.62C1.8,5,3.13,6.86,3.13,7.17S2,7.63,1.8,7.73s-.07.17.16.17H5.19c.24,0,.33-.1.21-.17s-1.32-.24-1.32-.56S5.4,5,5.4,4.62V3.09c0-.09,0-.13-.16-.16Z"/><path class="cls-1" d="M0,.56v0L0,.3v0L1.32.37h0l0,0h0l0,0h0l0,0h0l0,0h0l0,0h.05v0h0l0,0h0l0,0h0v0h0v0h0l0,0H2v0l0,0H2v0l0,0H2v0l.28.63h0l-.21.09h0L1.79,1h0v0h0v0h0v0h0v0h0v0h0v0h0v0h0v0h0v0h0l0,0h0l0,0h0l0,0h0l0,0h0Z"/><path class="cls-1" d="M7.25.56v0l0-.23v0L5.93.37h0l0,0h0l0,0h0l0,0h0l0,0h0l0,0H5.56v0h0l0,0h0l0,0h0v0h0v0h0l0,0h0v0l0,0h0v0l0,0h0v0l-.28.63h0l.21.09h0L5.46,1h0v0h0v0h0v0h0v0h0v0h0v0h0v0h0v0h0v0h0l0,0h0l0,0h0l0,0h0l0,0h0Z"/><path class="cls-1" d="M5.54,2.51A.76.76,0,0,0,5.72,2,.73.73,0,0,0,5,1.28a.72.72,0,0,0-.7-.65h0A.69.69,0,0,0,3,.64H2.85a.72.72,0,0,0-.7.66A.74.74,0,0,0,1.58,2a.77.77,0,0,0,.17.48Z"/></svg>