<svg id="Layer_1" data-name="Layer 1" xmlns="http://www.w3.org/2000/svg" viewBox="0 0 13.95 15.12"><defs><style>.cls-1{fill:#ff9d00;}</style></defs><title>save-icon-15px</title><path class="cls-1" d="M3.78,5.49a.36.36,0,0,0-.31.31v3c0,.67,2.55,4.31,2.55,4.9s-2.11.88-2.55,1.07c-.22.09-.13.33.31.33H10c.46,0,.63-.19.4-.33s-2.55-.47-2.55-1.07,2.55-4.24,2.55-4.9v-3c0-.17-.09-.25-.32-.31Z"/><path class="cls-1" d="M0,1V.89L.06.45v0L2.55.59h.07l.07,0h0l.07,0,.07,0h0l.06,0h0L3,.61H3L3,.66h.08l.05.06h.08l0,0,0,0h.08l0,.07h.08l0,.07.08,0h0l0,.07h0L3.7,1h0l0,.07h0l.07,0h0v.08l.07,0h0v.08l.06,0h0s0,.05,0,.08l.53,1.21h0L4,2.88,4,2.9,3.45,1.7h0l-.05,0h0V1.62h0l-.06,0h0V1.54H3.3s0,0,0-.06H3.24s0,0,0-.06H3.18V1.35H3.12v0H3l0-.05H3L3,1.27H3l0-.05H3l-.05,0h0l0-.05h0l-.05,0h0l0,0h0l0,0h0l0,0h0l0,0h0l0,0,0,0h0Z"/><path class="cls-1" d="M13.95,1V.89L13.89.45v0L11.4.59h-.07l-.07,0h0l-.07,0-.07,0h0l-.06,0h0L11,.61h0l-.06.05h-.08l-.05.06H10.7l0,0,0,0h-.08l0,.07h-.08l0,.07-.08,0h0l0,.07h0l-.07,0h0l0,.07h0l-.07,0h0v.08l-.07,0h0v.08l-.06,0h0s0,.05,0,.08L9.47,2.68h0l.41.18.06,0,.53-1.2h0l.05,0h0V1.62h0l.06,0h0V1.54h.06s0,0,0-.06h.06s0,0,0-.06h.06V1.35h.06v0h.06l0-.05h0l.06,0h0l0-.05h0l.05,0h0l0-.05h0l.05,0h0l0,0h0l0,0h0l0,0h0l0,0h0l0,0,0,0h0Z"/><path class="cls-1" d="M10.66,4.7A1.47,1.47,0,0,0,11,3.78,1.41,1.41,0,0,0,9.71,2.33,1.39,1.39,0,0,0,8.37,1.08H8.3a1.32,1.32,0,0,0-2.58,0l-.25,0A1.39,1.39,0,0,0,4.14,2.35,1.43,1.43,0,0,0,3,3.78a1.48,1.48,0,0,0,.33.93Z"/></svg>